<svg width="40" height="40" viewBox="0 0 40 40" fill="none" xmlns="http://www.w3.org/2000/svg">
<mask id="mask0_2_161" style="mask-type:alpha" maskUnits="userSpaceOnUse" x="0" y="0" width="40" height="40">
<rect width="40" height="40" fill="#D9D9D9"/>
</mask>
<g mask="url(#mask0_2_161)">
<path d="M26.6666 21.6666C25.3888 20.4999 24.1461 19.3544 22.9383 18.2299C21.7294 17.1044 20.66 15.9999 19.73 14.9166C18.7988 13.8333 18.0555 12.7844 17.5 11.7699C16.9444 10.7566 16.6666 9.7777 16.6666 8.83325C16.6666 7.2777 17.1944 5.97214 18.25 4.91659C19.3055 3.86103 20.6111 3.33325 22.1666 3.33325C23.0555 3.33325 23.8888 3.52047 24.6666 3.89492C25.4444 4.27047 26.1111 4.7777 26.6666 5.41659C27.2222 4.7777 27.8888 4.27047 28.6666 3.89492C29.4444 3.52047 30.2777 3.33325 31.1666 3.33325C32.7222 3.33325 34.0277 3.86103 35.0833 4.91659C36.1388 5.97214 36.6666 7.2777 36.6666 8.83325C36.6666 9.7777 36.3888 10.7566 35.8333 11.7699C35.2777 12.7844 34.535 13.8333 33.605 14.9166C32.6738 15.9999 31.6111 17.1044 30.4166 18.2299C29.2222 19.3544 27.9722 20.4999 26.6666 21.6666ZM26.6666 17.1666C28.3055 15.611 29.8266 14.0621 31.23 12.5199C32.6322 10.9788 33.3333 9.74992 33.3333 8.83325C33.3333 8.19436 33.1322 7.67325 32.73 7.26992C32.3266 6.8677 31.8055 6.66659 31.1666 6.66659C30.7777 6.66659 30.41 6.7427 30.0633 6.89492C29.7155 7.04825 29.4166 7.2777 29.1666 7.58325L26.6666 10.5833L24.1666 7.58325C23.9166 7.2777 23.6183 7.04825 23.2716 6.89492C22.9238 6.7427 22.5555 6.66659 22.1666 6.66659C21.5277 6.66659 21.0072 6.8677 20.605 7.26992C20.2016 7.67325 20 8.19436 20 8.83325C20 9.74992 20.7011 10.9788 22.1033 12.5199C23.5066 14.0621 25.0277 15.611 26.6666 17.1666ZM23.3333 37.4999L11.6666 34.2499V36.6666H1.66663V18.3333H14.9166L25.25 22.1666C26.1666 22.4999 26.91 23.0833 27.48 23.9166C28.0488 24.7499 28.3333 25.6666 28.3333 26.6666H31.6666C33.0555 26.6666 34.2361 27.1249 35.2083 28.0416C36.1805 28.9583 36.6666 30.1666 36.6666 31.6666V33.3333L23.3333 37.4999ZM4.99996 33.3333H8.33329V21.6666H4.99996V33.3333ZM23.25 33.9999L33.1666 30.9166C33.0833 30.611 32.8955 30.3816 32.6033 30.2283C32.3122 30.076 32 29.9999 31.6666 29.9999H23.6666C22.8055 29.9999 22.0277 29.9444 21.3333 29.8333C20.6388 29.7221 19.8888 29.5277 19.0833 29.2499L16.2083 28.2499L17.1666 25.0833L20.5 26.1666C21 26.3333 21.5833 26.4583 22.25 26.5416C22.9166 26.6249 23.8333 26.6666 25 26.6666C25 26.361 24.91 26.0694 24.73 25.7916C24.5488 25.5138 24.3333 25.3333 24.0833 25.2499L14.3333 21.6666H11.6666V30.8333L23.25 33.9999Z" fill="url(#paint0_linear_2_161)"/>
</g>
<defs>
<linearGradient id="paint0_linear_2_161" x1="1.66663" y1="3.33325" x2="39.2037" y2="6.39503" gradientUnits="userSpaceOnUse">
<stop stop-color="#F5E774"/>
<stop offset="1" stop-color="#05A3E7"/>
</linearGradient>
</defs>
</svg>
