<svg width="40" height="40" viewBox="0 0 40 40" fill="none" xmlns="http://www.w3.org/2000/svg">
<mask id="mask0_2_173" style="mask-type:alpha" maskUnits="userSpaceOnUse" x="0" y="0" width="40" height="40">
<rect width="40" height="40" fill="#D9D9D9"/>
</mask>
<g mask="url(#mask0_2_173)">
<path d="M14.25 33.3333H25.75L27.4167 26.6666H12.5833L14.25 33.3333ZM14.25 36.6666C13.4722 36.6666 12.7917 36.4305 12.2083 35.9583C11.625 35.486 11.2361 34.8749 11.0417 34.1249L9.16667 26.6666H30.8333L28.9583 34.1249C28.7639 34.8749 28.375 35.486 27.7917 35.9583C27.2083 36.4305 26.5278 36.6666 25.75 36.6666H14.25ZM8.33333 23.3333H31.6667V19.9999H8.33333V23.3333ZM20 13.3333C20 10.5555 20.9722 8.19436 22.9167 6.24992C24.8611 4.30547 27.2222 3.33325 30 3.33325C30 5.83325 29.2083 7.99992 27.625 9.83325C26.0417 11.6666 24.0556 12.7777 21.6667 13.1666V16.6666H35V23.3333C35 24.2499 34.6739 25.0344 34.0217 25.6866C33.3683 26.3399 32.5833 26.6666 31.6667 26.6666H8.33333C7.41667 26.6666 6.63167 26.3399 5.97833 25.6866C5.32611 25.0344 5 24.2499 5 23.3333V16.6666H18.3333V13.1666C15.9444 12.7777 13.9583 11.6666 12.375 9.83325C10.7917 7.99992 10 5.83325 10 3.33325C12.7778 3.33325 15.1389 4.30547 17.0833 6.24992C19.0278 8.19436 20 10.5555 20 13.3333Z" fill="url(#paint0_linear_2_173)"/>
</g>
<defs>
<linearGradient id="paint0_linear_2_173" x1="5" y1="3.33325" x2="37.2233" y2="5.64244" gradientUnits="userSpaceOnUse">
<stop stop-color="#F5E774"/>
<stop offset="1" stop-color="#05A3E7"/>
</linearGradient>
</defs>
</svg>
